<?xml version="1.0" encoding="UTF-8" standalone="no"?>
<!-- Created with Inkscape (http://www.inkscape.org/) -->

<svg
   xmlns:dc="http://purl.org/dc/elements/1.1/"
   xmlns:cc="http://creativecommons.org/ns#"
   xmlns:rdf="http://www.w3.org/1999/02/22-rdf-syntax-ns#"
   xmlns:svg="http://www.w3.org/2000/svg"
   xmlns="http://www.w3.org/2000/svg"
   xmlns:sodipodi="http://sodipodi.sourceforge.net/DTD/sodipodi-0.dtd"
   xmlns:inkscape="http://www.inkscape.org/namespaces/inkscape"
   width="395.19839"
   height="239.18359"
   id="svg4120"
   version="1.1"
   inkscape:version="0.91 r13725"
   sodipodi:docname="amplitude-period-ex31.svg">
  <sodipodi:namedview
     id="base"
     pagecolor="#ffffff"
     bordercolor="#666666"
     borderopacity="1.0"
     inkscape:pageopacity="0.0"
     inkscape:pageshadow="2"
     inkscape:zoom="1.3598607"
     inkscape:cx="101.9618"
     inkscape:cy="106.1713"
     inkscape:document-units="px"
     inkscape:current-layer="layer1"
     showgrid="false"
     inkscape:window-width="1366"
     inkscape:window-height="745"
     inkscape:window-x="-8"
     inkscape:window-y="-8"
     inkscape:window-maximized="1"
     showborder="true" />
  <defs
     id="defs4122">
    <marker
       style="overflow:visible"
       id="Arrow1Mstarty"
       refX="0"
       refY="0"
       orient="auto"
       inkscape:stockid="Arrow1Mstarty">
      <path
         transform="matrix(0.4,0,0,0.4,4,0)"
         style="fill:#19aeff;fill-rule:evenodd;stroke:#19aeff;stroke-width:1pt;marker-start:none"
         d="M 0,0 5,-5 -12.5,0 5,5 0,0 Z"
         id="path9144"
         inkscape:connector-curvature="0" />
    </marker>
    <marker
       style="overflow:visible"
       id="Arrow1Mend8"
       refX="0"
       refY="0"
       orient="auto"
       inkscape:stockid="Arrow1Mend8">
      <path
         transform="matrix(-0.4,0,0,-0.4,-4,0)"
         style="fill:#19aeff;fill-rule:evenodd;stroke:#19aeff;stroke-width:1pt;marker-start:none"
         d="M 0,0 5,-5 -12.5,0 5,5 0,0 Z"
         id="path9147"
         inkscape:connector-curvature="0" />
    </marker>
    <marker
       style="overflow:visible"
       id="marker3734"
       refX="0"
       refY="0"
       orient="auto"
       inkscape:stockid="Arrow1Mstarty">
      <path
         transform="matrix(0.4,0,0,0.4,4,0)"
         style="fill:#19aeff;fill-rule:evenodd;stroke:#19aeff;stroke-width:1pt;marker-start:none"
         d="M 0,0 5,-5 -12.5,0 5,5 0,0 Z"
         id="path3736"
         inkscape:connector-curvature="0" />
    </marker>
    <marker
       style="overflow:visible"
       id="marker3738"
       refX="0"
       refY="0"
       orient="auto"
       inkscape:stockid="Arrow1Mend8">
      <path
         transform="matrix(-0.4,0,0,-0.4,-4,0)"
         style="fill:#19aeff;fill-rule:evenodd;stroke:#19aeff;stroke-width:1pt;marker-start:none"
         d="M 0,0 5,-5 -12.5,0 5,5 0,0 Z"
         id="path3740"
         inkscape:connector-curvature="0" />
    </marker>
    <marker
       style="overflow:visible"
       id="Arrow1Mend"
       refX="0"
       refY="0"
       orient="auto"
       inkscape:stockid="Arrow1Mend">
      <path
         transform="matrix(-0.4,0,0,-0.4,-4,0)"
         style="fill-rule:evenodd;stroke:#000000;stroke-width:1pt;marker-start:none"
         d="M 0,0 5,-5 -12.5,0 5,5 0,0 Z"
         id="path3208"
         inkscape:connector-curvature="0" />
    </marker>
    <marker
       style="overflow:visible"
       id="marker3744"
       refX="0"
       refY="0"
       orient="auto"
       inkscape:stockid="Arrow1Mend">
      <path
         transform="matrix(-0.4,0,0,-0.4,-4,0)"
         style="fill-rule:evenodd;stroke:#000000;stroke-width:1pt;marker-start:none"
         d="M 0,0 5,-5 -12.5,0 5,5 0,0 Z"
         id="path3746"
         inkscape:connector-curvature="0" />
    </marker>
    <marker
       style="overflow:visible"
       id="marker3748"
       refX="0"
       refY="0"
       orient="auto"
       inkscape:stockid="Arrow1Mend">
      <path
         transform="matrix(-0.4,0,0,-0.4,-4,0)"
         style="fill-rule:evenodd;stroke:#000000;stroke-width:1pt;marker-start:none"
         d="M 0,0 5,-5 -12.5,0 5,5 0,0 Z"
         id="path3750"
         inkscape:connector-curvature="0" />
    </marker>
    <marker
       style="overflow:visible"
       id="marker3752"
       refX="0"
       refY="0"
       orient="auto"
       inkscape:stockid="Arrow1Mend">
      <path
         transform="matrix(-0.4,0,0,-0.4,-4,0)"
         style="fill-rule:evenodd;stroke:#000000;stroke-width:1pt;marker-start:none"
         d="M 0,0 5,-5 -12.5,0 5,5 0,0 Z"
         id="path3754"
         inkscape:connector-curvature="0" />
    </marker>
    <marker
       style="overflow:visible"
       id="Arrow1MstartR"
       refX="0"
       refY="0"
       orient="auto"
       inkscape:stockid="Arrow1MstartR">
      <path
         transform="matrix(0.4,0,0,0.4,4,0)"
         style="fill:#c4a000;fill-rule:evenodd;stroke:#c4a000;stroke-width:1pt;marker-start:none"
         d="M 0,0 5,-5 -12.5,0 5,5 0,0 Z"
         id="path8138"
         inkscape:connector-curvature="0" />
    </marker>
    <marker
       style="overflow:visible"
       id="Arrow1MendB"
       refX="0"
       refY="0"
       orient="auto"
       inkscape:stockid="Arrow1MendB">
      <path
         transform="matrix(-0.4,0,0,-0.4,-4,0)"
         style="fill:#c4a000;fill-rule:evenodd;stroke:#c4a000;stroke-width:1pt;marker-start:none"
         d="M 0,0 5,-5 -12.5,0 5,5 0,0 Z"
         id="path8141"
         inkscape:connector-curvature="0" />
    </marker>
    <marker
       style="overflow:visible"
       id="Arrow1MstartU"
       refX="0"
       refY="0"
       orient="auto"
       inkscape:stockid="Arrow1MstartU">
      <path
         transform="matrix(0.4,0,0,0.4,4,0)"
         style="fill:#c4a000;fill-rule:evenodd;stroke:#c4a000;stroke-width:1pt;marker-start:none"
         d="M 0,0 5,-5 -12.5,0 5,5 0,0 Z"
         id="path8144"
         inkscape:connector-curvature="0" />
    </marker>
    <marker
       style="overflow:visible"
       id="Arrow1Mendc"
       refX="0"
       refY="0"
       orient="auto"
       inkscape:stockid="Arrow1Mendc">
      <path
         transform="matrix(-0.4,0,0,-0.4,-4,0)"
         style="fill:#c4a000;fill-rule:evenodd;stroke:#c4a000;stroke-width:1pt;marker-start:none"
         d="M 0,0 5,-5 -12.5,0 5,5 0,0 Z"
         id="path8147"
         inkscape:connector-curvature="0" />
    </marker>
    <marker
       style="overflow:visible"
       id="marker3764"
       refX="0"
       refY="0"
       orient="auto"
       inkscape:stockid="Arrow1Mstarty">
      <path
         transform="matrix(0.4,0,0,0.4,4,0)"
         style="fill:#19aeff;fill-rule:evenodd;stroke:#19aeff;stroke-width:1pt;marker-start:none"
         d="M 0,0 5,-5 -12.5,0 5,5 0,0 Z"
         id="path3766"
         inkscape:connector-curvature="0" />
    </marker>
    <marker
       style="overflow:visible"
       id="marker3768"
       refX="0"
       refY="0"
       orient="auto"
       inkscape:stockid="Arrow1Mend8">
      <path
         transform="matrix(-0.4,0,0,-0.4,-4,0)"
         style="fill:#19aeff;fill-rule:evenodd;stroke:#19aeff;stroke-width:1pt;marker-start:none"
         d="M 0,0 5,-5 -12.5,0 5,5 0,0 Z"
         id="path3770"
         inkscape:connector-curvature="0" />
    </marker>
    <marker
       style="overflow:visible"
       id="marker3772"
       refX="0"
       refY="0"
       orient="auto"
       inkscape:stockid="Arrow1Mend">
      <path
         transform="matrix(-0.4,0,0,-0.4,-4,0)"
         style="fill-rule:evenodd;stroke:#000000;stroke-width:1pt;marker-start:none"
         d="M 0,0 5,-5 -12.5,0 5,5 0,0 Z"
         id="path3774"
         inkscape:connector-curvature="0" />
    </marker>
    <marker
       style="overflow:visible"
       id="marker3776"
       refX="0"
       refY="0"
       orient="auto"
       inkscape:stockid="Arrow1Mend">
      <path
         transform="matrix(-0.4,0,0,-0.4,-4,0)"
         style="fill-rule:evenodd;stroke:#000000;stroke-width:1pt;marker-start:none"
         d="M 0,0 5,-5 -12.5,0 5,5 0,0 Z"
         id="path3778"
         inkscape:connector-curvature="0" />
    </marker>
    <marker
       style="overflow:visible"
       id="marker3780"
       refX="0"
       refY="0"
       orient="auto"
       inkscape:stockid="Arrow1MstartR">
      <path
         transform="matrix(0.4,0,0,0.4,4,0)"
         style="fill:#c4a000;fill-rule:evenodd;stroke:#c4a000;stroke-width:1pt;marker-start:none"
         d="M 0,0 5,-5 -12.5,0 5,5 0,0 Z"
         id="path3782"
         inkscape:connector-curvature="0" />
    </marker>
    <marker
       style="overflow:visible"
       id="marker3784"
       refX="0"
       refY="0"
       orient="auto"
       inkscape:stockid="Arrow1MendB">
      <path
         transform="matrix(-0.4,0,0,-0.4,-4,0)"
         style="fill:#c4a000;fill-rule:evenodd;stroke:#c4a000;stroke-width:1pt;marker-start:none"
         d="M 0,0 5,-5 -12.5,0 5,5 0,0 Z"
         id="path3786"
         inkscape:connector-curvature="0" />
    </marker>
    <marker
       style="overflow:visible"
       id="marker3788"
       refX="0"
       refY="0"
       orient="auto"
       inkscape:stockid="Arrow1MstartU">
      <path
         transform="matrix(0.4,0,0,0.4,4,0)"
         style="fill:#c4a000;fill-rule:evenodd;stroke:#c4a000;stroke-width:1pt;marker-start:none"
         d="M 0,0 5,-5 -12.5,0 5,5 0,0 Z"
         id="path3790"
         inkscape:connector-curvature="0" />
    </marker>
    <marker
       style="overflow:visible"
       id="marker3792"
       refX="0"
       refY="0"
       orient="auto"
       inkscape:stockid="Arrow1Mendc">
      <path
         transform="matrix(-0.4,0,0,-0.4,-4,0)"
         style="fill:#c4a000;fill-rule:evenodd;stroke:#c4a000;stroke-width:1pt;marker-start:none"
         d="M 0,0 5,-5 -12.5,0 5,5 0,0 Z"
         id="path3794"
         inkscape:connector-curvature="0" />
    </marker>
    <marker
       style="overflow:visible"
       id="marker3796"
       refX="0"
       refY="0"
       orient="auto"
       inkscape:stockid="Arrow1Mstarty">
      <path
         transform="matrix(0.4,0,0,0.4,4,0)"
         style="fill:#19aeff;fill-rule:evenodd;stroke:#19aeff;stroke-width:1pt;marker-start:none"
         d="M 0,0 5,-5 -12.5,0 5,5 0,0 Z"
         id="path3798"
         inkscape:connector-curvature="0" />
    </marker>
    <marker
       style="overflow:visible"
       id="marker3800"
       refX="0"
       refY="0"
       orient="auto"
       inkscape:stockid="Arrow1Mend8">
      <path
         transform="matrix(-0.4,0,0,-0.4,-4,0)"
         style="fill:#19aeff;fill-rule:evenodd;stroke:#19aeff;stroke-width:1pt;marker-start:none"
         d="M 0,0 5,-5 -12.5,0 5,5 0,0 Z"
         id="path3802"
         inkscape:connector-curvature="0" />
    </marker>
    <marker
       style="overflow:visible"
       id="marker3804"
       refX="0"
       refY="0"
       orient="auto"
       inkscape:stockid="Arrow1Mend">
      <path
         transform="matrix(-0.4,0,0,-0.4,-4,0)"
         style="fill-rule:evenodd;stroke:#000000;stroke-width:1pt;marker-start:none"
         d="M 0,0 5,-5 -12.5,0 5,5 0,0 Z"
         id="path3806"
         inkscape:connector-curvature="0" />
    </marker>
    <marker
       style="overflow:visible"
       id="marker3808"
       refX="0"
       refY="0"
       orient="auto"
       inkscape:stockid="Arrow1Mend">
      <path
         transform="matrix(-0.4,0,0,-0.4,-4,0)"
         style="fill-rule:evenodd;stroke:#000000;stroke-width:1pt;marker-start:none"
         d="M 0,0 5,-5 -12.5,0 5,5 0,0 Z"
         id="path3810"
         inkscape:connector-curvature="0" />
    </marker>
    <marker
       style="overflow:visible"
       id="Arrow1MstartyP"
       refX="0"
       refY="0"
       orient="auto"
       inkscape:stockid="Arrow1MstartyP">
      <path
         transform="matrix(0.4,0,0,0.4,4,0)"
         style="fill:#204a87;fill-rule:evenodd;stroke:#204a87;stroke-width:1pt;marker-start:none"
         d="M 0,0 5,-5 -12.5,0 5,5 0,0 Z"
         id="path4896"
         inkscape:connector-curvature="0" />
    </marker>
    <marker
       style="overflow:visible"
       id="Arrow1Mend8S"
       refX="0"
       refY="0"
       orient="auto"
       inkscape:stockid="Arrow1Mend8S">
      <path
         transform="matrix(-0.4,0,0,-0.4,-4,0)"
         style="fill:#204a87;fill-rule:evenodd;stroke:#204a87;stroke-width:1pt;marker-start:none"
         d="M 0,0 5,-5 -12.5,0 5,5 0,0 Z"
         id="path4899"
         inkscape:connector-curvature="0" />
    </marker>
    <marker
       style="overflow:visible"
       id="Arrow1MstartyP1"
       refX="0"
       refY="0"
       orient="auto"
       inkscape:stockid="Arrow1MstartyP1">
      <path
         transform="matrix(0.4,0,0,0.4,4,0)"
         style="fill:#c4a000;fill-rule:evenodd;stroke:#c4a000;stroke-width:1pt;marker-start:none"
         d="M 0,0 5,-5 -12.5,0 5,5 0,0 Z"
         id="path7671"
         inkscape:connector-curvature="0" />
    </marker>
    <marker
       style="overflow:visible"
       id="Arrow1Mend8SO"
       refX="0"
       refY="0"
       orient="auto"
       inkscape:stockid="Arrow1Mend8SO">
      <path
         transform="matrix(-0.4,0,0,-0.4,-4,0)"
         style="fill:#c4a000;fill-rule:evenodd;stroke:#c4a000;stroke-width:1pt;marker-start:none"
         d="M 0,0 5,-5 -12.5,0 5,5 0,0 Z"
         id="path7674"
         inkscape:connector-curvature="0" />
    </marker>
    <marker
       style="overflow:visible"
       id="Arrow1MstartyP16"
       refX="0"
       refY="0"
       orient="auto"
       inkscape:stockid="Arrow1MstartyP16">
      <path
         transform="matrix(0.4,0,0,0.4,4,0)"
         style="fill:#009100;fill-rule:evenodd;stroke:#009100;stroke-width:1pt;marker-start:none"
         d="M 0,0 5,-5 -12.5,0 5,5 0,0 Z"
         id="path8417"
         inkscape:connector-curvature="0" />
    </marker>
    <marker
       style="overflow:visible"
       id="Arrow1Mend8SOe"
       refX="0"
       refY="0"
       orient="auto"
       inkscape:stockid="Arrow1Mend8SOe">
      <path
         transform="matrix(-0.4,0,0,-0.4,-4,0)"
         style="fill:#009100;fill-rule:evenodd;stroke:#009100;stroke-width:1pt;marker-start:none"
         d="M 0,0 5,-5 -12.5,0 5,5 0,0 Z"
         id="path8420"
         inkscape:connector-curvature="0" />
    </marker>
    <marker
       style="overflow:visible"
       id="Arrow1Mstartyk"
       refX="0"
       refY="0"
       orient="auto"
       inkscape:stockid="Arrow1Mstartyk">
      <path
         transform="matrix(0.4,0,0,0.4,4,0)"
         style="fill:#009100;fill-rule:evenodd;stroke:#009100;stroke-width:1pt;marker-start:none"
         d="M 0,0 5,-5 -12.5,0 5,5 0,0 Z"
         id="path9171"
         inkscape:connector-curvature="0" />
    </marker>
    <marker
       style="overflow:visible"
       id="Arrow1Mend8N"
       refX="0"
       refY="0"
       orient="auto"
       inkscape:stockid="Arrow1Mend8N">
      <path
         transform="matrix(-0.4,0,0,-0.4,-4,0)"
         style="fill:#009100;fill-rule:evenodd;stroke:#009100;stroke-width:1pt;marker-start:none"
         d="M 0,0 5,-5 -12.5,0 5,5 0,0 Z"
         id="path9174"
         inkscape:connector-curvature="0" />
    </marker>
    <marker
       style="overflow:visible"
       id="Arrow1MstartR-6"
       refX="0"
       refY="0"
       orient="auto"
       inkscape:stockid="Arrow1MstartR">
      <path
         transform="matrix(0.4,0,0,0.4,4,0)"
         style="fill:#c4a000;fill-rule:evenodd;stroke:#c4a000;stroke-width:1pt;marker-start:none"
         d="M 0,0 5,-5 -12.5,0 5,5 0,0 Z"
         id="path8138-4"
         inkscape:connector-curvature="0" />
    </marker>
    <marker
       style="overflow:visible"
       id="Arrow1MendB-5"
       refX="0"
       refY="0"
       orient="auto"
       inkscape:stockid="Arrow1MendB">
      <path
         transform="matrix(-0.4,0,0,-0.4,-4,0)"
         style="fill:#c4a000;fill-rule:evenodd;stroke:#c4a000;stroke-width:1pt;marker-start:none"
         d="M 0,0 5,-5 -12.5,0 5,5 0,0 Z"
         id="path8141-1"
         inkscape:connector-curvature="0" />
    </marker>
    <marker
       style="overflow:visible"
       id="Arrow1MstartU-5"
       refX="0"
       refY="0"
       orient="auto"
       inkscape:stockid="Arrow1MstartU">
      <path
         transform="matrix(0.4,0,0,0.4,4,0)"
         style="fill:#c4a000;fill-rule:evenodd;stroke:#c4a000;stroke-width:1pt;marker-start:none"
         d="M 0,0 5,-5 -12.5,0 5,5 0,0 Z"
         id="path8144-8"
         inkscape:connector-curvature="0" />
    </marker>
    <marker
       style="overflow:visible"
       id="Arrow1Mendc-3"
       refX="0"
       refY="0"
       orient="auto"
       inkscape:stockid="Arrow1Mendc">
      <path
         transform="matrix(-0.4,0,0,-0.4,-4,0)"
         style="fill:#c4a000;fill-rule:evenodd;stroke:#c4a000;stroke-width:1pt;marker-start:none"
         d="M 0,0 5,-5 -12.5,0 5,5 0,0 Z"
         id="path8147-6"
         inkscape:connector-curvature="0" />
    </marker>
    <marker
       style="overflow:visible"
       id="Arrow1Mstarty-8"
       refX="0"
       refY="0"
       orient="auto"
       inkscape:stockid="Arrow1Mstarty">
      <path
         transform="matrix(0.4,0,0,0.4,4,0)"
         style="fill:#19aeff;fill-rule:evenodd;stroke:#19aeff;stroke-width:1pt;marker-start:none"
         d="M 0,0 5,-5 -12.5,0 5,5 0,0 Z"
         id="path9144-7"
         inkscape:connector-curvature="0" />
    </marker>
    <marker
       style="overflow:visible"
       id="Arrow1Mend8-9"
       refX="0"
       refY="0"
       orient="auto"
       inkscape:stockid="Arrow1Mend8">
      <path
         transform="matrix(-0.4,0,0,-0.4,-4,0)"
         style="fill:#19aeff;fill-rule:evenodd;stroke:#19aeff;stroke-width:1pt;marker-start:none"
         d="M 0,0 5,-5 -12.5,0 5,5 0,0 Z"
         id="path9147-1"
         inkscape:connector-curvature="0" />
    </marker>
    <marker
       style="overflow:visible"
       id="Arrow1MstartRm"
       refX="0"
       refY="0"
       orient="auto"
       inkscape:stockid="Arrow1MstartRm">
      <path
         transform="matrix(0.4,0,0,0.4,4,0)"
         style="fill:#ff4141;fill-rule:evenodd;stroke:#ff4141;stroke-width:1pt;marker-start:none"
         d="M 0,0 5,-5 -12.5,0 5,5 0,0 Z"
         id="path16750"
         inkscape:connector-curvature="0" />
    </marker>
    <marker
       style="overflow:visible"
       id="Arrow1MendBB"
       refX="0"
       refY="0"
       orient="auto"
       inkscape:stockid="Arrow1MendBB">
      <path
         transform="matrix(-0.4,0,0,-0.4,-4,0)"
         style="fill:#ff4141;fill-rule:evenodd;stroke:#ff4141;stroke-width:1pt;marker-start:none"
         d="M 0,0 5,-5 -12.5,0 5,5 0,0 Z"
         id="path16753"
         inkscape:connector-curvature="0" />
    </marker>
    <marker
       style="overflow:visible"
       id="Arrow1MstartR5"
       refX="0"
       refY="0"
       orient="auto"
       inkscape:stockid="Arrow1MstartR5">
      <path
         transform="matrix(0.4,0,0,0.4,4,0)"
         style="fill:#73d216;fill-rule:evenodd;stroke:#73d216;stroke-width:1pt;marker-start:none"
         d="M 0,0 5,-5 -12.5,0 5,5 0,0 Z"
         id="path18022"
         inkscape:connector-curvature="0" />
    </marker>
    <marker
       style="overflow:visible"
       id="Arrow1MendBN"
       refX="0"
       refY="0"
       orient="auto"
       inkscape:stockid="Arrow1MendBN">
      <path
         transform="matrix(-0.4,0,0,-0.4,-4,0)"
         style="fill:#73d216;fill-rule:evenodd;stroke:#73d216;stroke-width:1pt;marker-start:none"
         d="M 0,0 5,-5 -12.5,0 5,5 0,0 Z"
         id="path18025"
         inkscape:connector-curvature="0" />
    </marker>
    <marker
       style="overflow:visible"
       id="Arrow1Mend8s"
       refX="0"
       refY="0"
       orient="auto"
       inkscape:stockid="Arrow1Mend8s">
      <path
         transform="matrix(-0.4,0,0,-0.4,-4,0)"
         style="fill:#c4a000;fill-rule:evenodd;stroke:#c4a000;stroke-width:1pt;marker-start:none"
         d="M 0,0 5,-5 -12.5,0 5,5 0,0 Z"
         id="path19034"
         inkscape:connector-curvature="0" />
    </marker>
    <marker
       style="overflow:visible"
       id="Arrow1MstartyP16a"
       refX="0"
       refY="0"
       orient="auto"
       inkscape:stockid="Arrow1MstartyP16a">
      <path
         transform="matrix(0.4,0,0,0.4,4,0)"
         style="fill:#005c94;fill-rule:evenodd;stroke:#005c94;stroke-width:1pt;marker-start:none"
         d="M 0,0 5,-5 -12.5,0 5,5 0,0 Z"
         id="path21244"
         inkscape:connector-curvature="0" />
    </marker>
    <marker
       style="overflow:visible"
       id="Arrow1Mend8SOeg"
       refX="0"
       refY="0"
       orient="auto"
       inkscape:stockid="Arrow1Mend8SOeg">
      <path
         transform="matrix(-0.4,0,0,-0.4,-4,0)"
         style="fill:#005c94;fill-rule:evenodd;stroke:#005c94;stroke-width:1pt;marker-start:none"
         d="M 0,0 5,-5 -12.5,0 5,5 0,0 Z"
         id="path21247"
         inkscape:connector-curvature="0" />
    </marker>
    <marker
       style="overflow:visible"
       id="Arrow1MstartR5-8"
       refX="0"
       refY="0"
       orient="auto"
       inkscape:stockid="Arrow1MstartR5">
      <path
         transform="matrix(0.4,0,0,0.4,4,0)"
         style="fill:#73d216;fill-rule:evenodd;stroke:#73d216;stroke-width:1pt;marker-start:none"
         d="M 0,0 5,-5 -12.5,0 5,5 0,0 Z"
         id="path18022-3"
         inkscape:connector-curvature="0" />
    </marker>
    <marker
       style="overflow:visible"
       id="Arrow1MendBN-8"
       refX="0"
       refY="0"
       orient="auto"
       inkscape:stockid="Arrow1MendBN">
      <path
         transform="matrix(-0.4,0,0,-0.4,-4,0)"
         style="fill:#73d216;fill-rule:evenodd;stroke:#73d216;stroke-width:1pt;marker-start:none"
         d="M 0,0 5,-5 -12.5,0 5,5 0,0 Z"
         id="path18025-0"
         inkscape:connector-curvature="0" />
    </marker>
    <marker
       style="overflow:visible"
       id="Arrow1Mend8s-2"
       refX="0"
       refY="0"
       orient="auto"
       inkscape:stockid="Arrow1Mend8s">
      <path
         transform="matrix(-0.4,0,0,-0.4,-4,0)"
         style="fill:#c4a000;fill-rule:evenodd;stroke:#c4a000;stroke-width:1pt;marker-start:none"
         d="M 0,0 5,-5 -12.5,0 5,5 0,0 Z"
         id="path19034-3"
         inkscape:connector-curvature="0" />
    </marker>
    <marker
       style="overflow:visible"
       id="Arrow1Mstarty-7"
       refX="0"
       refY="0"
       orient="auto"
       inkscape:stockid="Arrow1Mstarty">
      <path
         transform="matrix(0.4,0,0,0.4,4,0)"
         style="fill:#19aeff;fill-rule:evenodd;stroke:#19aeff;stroke-width:1pt;marker-start:none"
         d="M 0,0 5,-5 -12.5,0 5,5 0,0 Z"
         id="path9144-78"
         inkscape:connector-curvature="0" />
    </marker>
    <marker
       style="overflow:visible"
       id="Arrow1Mend8-7"
       refX="0"
       refY="0"
       orient="auto"
       inkscape:stockid="Arrow1Mend8">
      <path
         transform="matrix(-0.4,0,0,-0.4,-4,0)"
         style="fill:#19aeff;fill-rule:evenodd;stroke:#19aeff;stroke-width:1pt;marker-start:none"
         d="M 0,0 5,-5 -12.5,0 5,5 0,0 Z"
         id="path9147-10"
         inkscape:connector-curvature="0" />
    </marker>
    <marker
       style="overflow:visible"
       id="Arrow1MstartRm-5"
       refX="0"
       refY="0"
       orient="auto"
       inkscape:stockid="Arrow1MstartRm">
      <path
         transform="matrix(0.4,0,0,0.4,4,0)"
         style="fill:#ff4141;fill-rule:evenodd;stroke:#ff4141;stroke-width:1pt;marker-start:none"
         d="M 0,0 5,-5 -12.5,0 5,5 0,0 Z"
         id="path16750-5"
         inkscape:connector-curvature="0" />
    </marker>
    <marker
       style="overflow:visible"
       id="Arrow1MendBB-0"
       refX="0"
       refY="0"
       orient="auto"
       inkscape:stockid="Arrow1MendBB">
      <path
         transform="matrix(-0.4,0,0,-0.4,-4,0)"
         style="fill:#ff4141;fill-rule:evenodd;stroke:#ff4141;stroke-width:1pt;marker-start:none"
         d="M 0,0 5,-5 -12.5,0 5,5 0,0 Z"
         id="path16753-8"
         inkscape:connector-curvature="0" />
    </marker>
    <marker
       style="overflow:visible"
       id="Arrow1Mstarty-9"
       refX="0"
       refY="0"
       orient="auto"
       inkscape:stockid="Arrow1Mstarty">
      <path
         transform="matrix(0.4,0,0,0.4,4,0)"
         style="fill:#19aeff;fill-rule:evenodd;stroke:#19aeff;stroke-width:1pt;marker-start:none"
         d="M 0,0 5,-5 -12.5,0 5,5 0,0 Z"
         id="path9144-2"
         inkscape:connector-curvature="0" />
    </marker>
    <marker
       style="overflow:visible"
       id="Arrow1Mend8-1"
       refX="0"
       refY="0"
       orient="auto"
       inkscape:stockid="Arrow1Mend8">
      <path
         transform="matrix(-0.4,0,0,-0.4,-4,0)"
         style="fill:#19aeff;fill-rule:evenodd;stroke:#19aeff;stroke-width:1pt;marker-start:none"
         d="M 0,0 5,-5 -12.5,0 5,5 0,0 Z"
         id="path9147-6"
         inkscape:connector-curvature="0" />
    </marker>
  </defs>
  <metadata
     id="metadata4125">
    <rdf:RDF>
      <cc:Work
         rdf:about="">
        <dc:format>image/svg+xml</dc:format>
        <dc:type
           rdf:resource="http://purl.org/dc/dcmitype/StillImage" />
        <dc:title></dc:title>
      </cc:Work>
    </rdf:RDF>
  </metadata>
  <g
     id="layer1"
     inkscape:groupmode="layer"
     inkscape:label="Layer 1"
     transform="translate(-2669.1779,-1673.2443)">
    <g
       transform="matrix(-0.79764313,0,0,0.07072387,3012.324,1688.225)"
       id="g24452"
       style="color:#808080;fill:#19aeff;stroke:#19aeff;stroke-width:1.11195016;stroke-miterlimit:4;stroke-dasharray:none">
      <path
         style="fill:#19aeff;stroke:#19aeff;stroke-width:1.11195016;stroke-miterlimit:4;stroke-dasharray:none"
         id="path24454"
         d="M 286,692 286,50"
         inkscape:connector-curvature="0" />
    </g>
    <path
       id="path24462"
       d="m 2787.6873,1702.2261 109.372,0"
       style="fill:#19aeff;fill-opacity:0.75;fill-rule:evenodd;stroke:#19aeff;stroke-width:2.34208798;stroke-linecap:butt;stroke-linejoin:miter;stroke-miterlimit:4;stroke-dasharray:none;stroke-dashoffset:0;stroke-opacity:1;marker-start:url(#Arrow1Mstarty);marker-end:url(#Arrow1Mend8)"
       inkscape:connector-curvature="0" />
    <path
       inkscape:connector-curvature="0"
       style="fill:none;stroke:#c4a000;stroke-width:1.15516055;stroke-linecap:butt;stroke-linejoin:miter;stroke-miterlimit:4;stroke-dasharray:6.93096294, 2.31032097;stroke-dashoffset:0;stroke-opacity:1;marker-end:none"
       d="m 2925.209,1740.9458 73.5598,0"
       id="path24464" />
    <text
       sodipodi:linespacing="89.999998%"
       id="text24466"
       y="1787.5421"
       x="3015.6094"
       style="color:#000000;font-style:normal;font-variant:normal;font-weight:normal;font-stretch:normal;font-size:17.5px;line-height:89.99999762%;font-family:'Comic Sans MS';-inkscape-font-specification:'Comic Sans MS, Normal';text-indent:0;text-align:center;text-decoration:none;text-decoration-line:none;letter-spacing:0px;word-spacing:0px;text-transform:none;direction:ltr;block-progression:tb;writing-mode:lr-tb;baseline-shift:baseline;text-anchor:middle;display:inline;overflow:visible;visibility:visible;fill:#73d216;fill-opacity:1;fill-rule:nonzero;stroke:none;stroke-width:1px;marker:none;enable-background:accumulate"
       xml:space="preserve"
       transform="scale(0.99992131,1.0000787)"><tspan
         y="1787.5421"
         x="3015.6094"
         sodipodi:role="line"
         id="tspan14852">振幅 = 3</tspan><tspan
         y="1804.3718"
         x="3015.6094"
         sodipodi:role="line"
         id="tspan24470" /></text>
    <path
       inkscape:connector-curvature="0"
       style="fill:#2e3436;fill-opacity:0.75;fill-rule:evenodd;stroke:#73d216;stroke-width:1.73274076;stroke-linecap:butt;stroke-linejoin:miter;stroke-miterlimit:4;stroke-dasharray:6.93096317, 3.46548159, 1.73274079, 3.46548159;stroke-dashoffset:0;stroke-opacity:1;marker-end:none"
       d="m 2967.6474,1824.9277 27.3282,0"
       id="path24472" />
    <text
       sodipodi:linespacing="89.999998%"
       id="text24474"
       y="1690.733"
       x="2844.1191"
       style="color:#000000;font-style:normal;font-variant:normal;font-weight:normal;font-stretch:normal;font-size:17.5px;line-height:89.99999762%;font-family:'Comic Sans MS';-inkscape-font-specification:'Comic Sans MS, Normal';text-indent:0;text-align:center;text-decoration:none;text-decoration-line:none;letter-spacing:0px;word-spacing:0px;text-transform:none;direction:ltr;block-progression:tb;writing-mode:lr-tb;baseline-shift:baseline;text-anchor:middle;display:inline;overflow:visible;visibility:visible;fill:#19aeff;fill-opacity:1;fill-rule:nonzero;stroke:none;stroke-width:1px;marker:none;enable-background:accumulate"
       xml:space="preserve"
       transform="scale(0.99992131,1.0000787)"><tspan
         sodipodi:role="line"
         id="tspan24476"
         x="2844.1191"
         y="1690.733">周期 = 0.02π</tspan></text>
    <text
       sodipodi:linespacing="89.999998%"
       id="text24480"
       y="1730.8193"
       x="2684.5354"
       style="color:#000000;font-style:normal;font-variant:normal;font-weight:normal;font-stretch:normal;font-size:17.5px;line-height:89.99999762%;font-family:'Comic Sans MS';-inkscape-font-specification:'Comic Sans MS, Normal';text-indent:0;text-align:start;text-decoration:none;text-decoration-line:none;letter-spacing:0px;word-spacing:0px;text-transform:none;direction:ltr;block-progression:tb;writing-mode:lr-tb;baseline-shift:baseline;text-anchor:start;display:inline;overflow:visible;visibility:visible;fill:#c4a000;fill-opacity:1;fill-rule:nonzero;stroke:none;stroke-width:1px;marker:none;enable-background:accumulate"
       xml:space="preserve"
       transform="scale(0.99992131,1.0000787)"><tspan
         sodipodi:role="line"
         id="tspan24484"
         x="2684.5354"
         y="1730.8193">相移 = -0.01 </tspan></text>
    <g
       style="color:#808080;fill:#19aeff;stroke:#19aeff;stroke-width:1.11195016;stroke-miterlimit:4;stroke-dasharray:none"
       id="g24514"
       transform="matrix(-0.79764313,0,0,0.07072387,3127.7066,1688.225)">
      <path
         inkscape:connector-curvature="0"
         d="M 286,692 286,50"
         id="path24516"
         style="fill:#19aeff;stroke:#19aeff;stroke-width:1.11195016;stroke-miterlimit:4;stroke-dasharray:none" />
    </g>
    <path
       id="path24528"
       d="m 2974.3234,1744.4286 0,75.9782"
       style="fill:none;stroke:#73d216;stroke-width:2.34208798;stroke-linecap:butt;stroke-linejoin:miter;stroke-miterlimit:4;stroke-dasharray:none;stroke-dashoffset:0;stroke-opacity:1;marker-start:url(#Arrow1MstartR5);marker-end:url(#Arrow1MendBN)"
       inkscape:connector-curvature="0" />
    <g
       transform="matrix(2.7958493,0,0,0.12884123,1954.5322,1731.7551)"
       id="g24530"
       style="color:#808080;fill:#19aeff;stroke:#c4a000;stroke-width:0.44003609;stroke-miterlimit:4;stroke-dasharray:none">
      <path
         style="fill:#19aeff;stroke:#c4a000;stroke-width:0.44003609;stroke-miterlimit:4;stroke-dasharray:none"
         id="path24532"
         d="M 286,692 286,50"
         inkscape:connector-curvature="0" />
    </g>
    <path
       id="path24536"
       d="m 2773.2174,1748.4734 -15.7349,0"
       style="fill:#c4a000;fill-opacity:0.75;fill-rule:evenodd;stroke:#c4a000;stroke-width:2.34208798;stroke-linecap:butt;stroke-linejoin:miter;stroke-miterlimit:4;stroke-dasharray:none;stroke-dashoffset:0;stroke-opacity:1;marker-start:none;marker-end:url(#Arrow1Mend8s)"
       inkscape:connector-curvature="0" />
    <path
       sodipodi:type="star"
       style="color:#008000;display:inline;overflow:visible;visibility:visible;fill:#204a87;fill-opacity:1;fill-rule:nonzero;stroke:none;stroke-width:2.56500006;marker:none;enable-background:accumulate"
       id="path24538"
       sodipodi:sides="3"
       sodipodi:cx="2952.2605"
       sodipodi:cy="1824.5043"
       sodipodi:r1="8.6223593"
       sodipodi:r2="4.3111792"
       sodipodi:arg1="2.0943951"
       sodipodi:arg2="3.1415927"
       inkscape:flatsided="true"
       inkscape:rounded="0"
       inkscape:randomized="0"
       d="m 2947.9493,1831.9715 0,-14.9344 12.9336,7.4672 z"
       inkscape:transform-center-x="-2.1555634"
       inkscape:transform-center-y="-0.00014146281" />
    <text
       sodipodi:linespacing="125%"
       id="text24542"
       y="1912.2983"
       x="2762.8384"
       style="color:#000000;font-style:normal;font-variant:normal;font-weight:normal;font-stretch:normal;font-size:9.15283012px;line-height:125%;font-family:sans-serif;-inkscape-font-specification:'Comic Sans MS';text-indent:0;text-align:start;text-decoration:none;text-decoration-line:none;text-decoration-style:solid;text-decoration-color:#000000;letter-spacing:0px;word-spacing:0px;text-transform:none;direction:ltr;block-progression:tb;writing-mode:lr-tb;baseline-shift:baseline;text-anchor:start;white-space:normal;clip-rule:nonzero;display:inline;overflow:visible;visibility:visible;opacity:1;isolation:auto;mix-blend-mode:normal;color-interpolation:sRGB;color-interpolation-filters:linearRGB;solid-color:#000000;solid-opacity:1;fill:#000000;fill-opacity:1;fill-rule:nonzero;stroke:none;stroke-width:1px;stroke-linecap:butt;stroke-linejoin:miter;stroke-miterlimit:4;stroke-dasharray:none;stroke-dashoffset:0;stroke-opacity:1;marker:none;color-rendering:auto;image-rendering:auto;shape-rendering:auto;text-rendering:auto;enable-background:accumulate"
       xml:space="preserve"><tspan
         y="1912.2983"
         x="2762.8384"
         id="tspan24544"
         sodipodi:role="line">-3</tspan></text>
    <text
       transform="scale(1.1347011,0.88128935)"
       sodipodi:linespacing="125%"
       id="text24567"
       y="2064.1331"
       x="2588.6423"
       style="color:#000000;font-style:normal;font-variant:normal;font-weight:normal;font-stretch:normal;font-size:17.5px;line-height:125%;font-family:'Comic Sans MS';-inkscape-font-specification:'Comic Sans MS, Normal';text-indent:0;text-align:start;text-decoration:none;text-decoration-line:none;letter-spacing:0px;word-spacing:0px;text-transform:none;direction:ltr;block-progression:tb;writing-mode:lr-tb;baseline-shift:baseline;text-anchor:start;display:inline;overflow:visible;visibility:visible;fill:#204a87;fill-opacity:1;fill-rule:nonzero;stroke:none;stroke-width:1px;marker:none;enable-background:accumulate"
       xml:space="preserve"><tspan
         y="2064.1331"
         x="2588.6423"
         id="tspan24569"
         sodipodi:role="line">t</tspan></text>
    <g
       id="g5315"
       transform="matrix(0.26394564,0,0,-0.52493174,2273.9435,2019.7101)"
       style="stroke:#19aeff;stroke-width:5.55393982;stroke-miterlimit:4;stroke-dasharray:none">
      <path
         style="color:#008000;fill:none;stroke:#19aeff;stroke-width:5.55393982;stroke-miterlimit:4;stroke-dasharray:none;stroke-dashoffset:0;stroke-opacity:1"
         d="m 1677,232 c 18.5752,-30.52716 60.9816,-24.33973 77,5 56.5043,80.41423 77.7493,179.41923 132,261 14.4184,29.50865 57.0353,47.53522 79,15 39.1855,-46.1466 58.2472,-105.12325 83.275,-159.32625 22.3325,-46.933 39.674,-99.89097 79.7125,-135.32625 32.8559,-23.5583 62.9596,14.38838 77.4609,40.62922 45.159,76.51411 68.1662,164.05371 116.7938,238.72906 14.3036,27.96112 53.5658,47.45205 77.0234,18.4361 45.5189,-53.87099 66.1792,-122.94485 95.9782,-185.70657 19.247,-39.81305 35.4927,-84.56738 71.0062,-113.11406 19.5625,-14.55005 43.9138,-2.85988 56.75,14.67875"
         id="path5317"
         inkscape:connector-curvature="0" />
    </g>
    <path
       style="color:#808080;fill:none;stroke:#808080;stroke-width:0.32872766"
       inkscape:connector-curvature="0"
       d="m 2715.8251,1853.0548 240.2194,0"
       id="path5251" />
    <path
       style="color:#808080;fill:none;stroke:#808080;stroke-width:0.32872766"
       inkscape:connector-curvature="0"
       d="m 2715.8251,1797.0809 240.2194,0"
       id="path5259" />
    <path
       style="color:#808080;fill:none;stroke:#808080;stroke-width:0.32872766"
       inkscape:connector-curvature="0"
       d="m 2715.8251,1769.094 240.2194,0"
       id="path5263" />
    <path
       style="color:#808080;fill:none;stroke:#808080;stroke-width:0.32872766"
       inkscape:connector-curvature="0"
       d="m 2715.8251,1741.1071 240.2194,0"
       id="path5267" />
    <path
       inkscape:connector-curvature="0"
       d="m 2737.1627,1908.5635 0,-167.686"
       id="path5279"
       style="color:#808080;fill:none;stroke:#808080;stroke-width:0.39862341" />
    <path
       inkscape:connector-curvature="0"
       d="m 2773.362,1908.9902 0,-167.686"
       id="path5283"
       style="color:#808080;fill:none;stroke:#808080;stroke-width:0.39862341" />
    <path
       inkscape:connector-curvature="0"
       d="m 2810.2684,1908.9902 0,-167.686"
       id="path5291"
       style="color:#808080;fill:none;stroke:#808080;stroke-width:0.39862341" />
    <path
       inkscape:connector-curvature="0"
       d="m 2847.2319,1908.9902 0,-167.686"
       id="path5299"
       style="color:#808080;fill:none;stroke:#808080;stroke-width:0.39862341" />
    <path
       inkscape:connector-curvature="0"
       d="m 2956.2529,1908.9902 0,-167.686"
       id="path5333"
       style="color:#808080;fill:none;stroke:#808080;stroke-width:0.39862341" />
    <path
       inkscape:connector-curvature="0"
       d="m 2883.572,1908.9902 0,-167.686"
       id="path5337"
       style="color:#808080;fill:none;stroke:#808080;stroke-width:0.39862341" />
    <path
       inkscape:connector-curvature="0"
       d="m 2919.9128,1908.9902 0,-167.686"
       id="path5341"
       style="color:#808080;fill:none;stroke:#808080;stroke-width:0.39862341" />
    <path
       id="path16735"
       d="m 2715.8251,1909.0286 240.2194,0"
       inkscape:connector-curvature="0"
       style="color:#808080;fill:none;stroke:#808080;stroke-width:0.32872766" />
    <path
       id="path16737"
       d="m 2715.8251,1881.0417 240.2194,0"
       inkscape:connector-curvature="0"
       style="color:#808080;fill:none;stroke:#808080;stroke-width:0.32872766" />
    <text
       xml:space="preserve"
       style="font-style:normal;font-weight:normal;font-size:9.15283012px;line-height:125%;font-family:sans-serif;letter-spacing:0px;word-spacing:0px;fill:#000000;fill-opacity:1;stroke:none;stroke-width:1px;stroke-linecap:butt;stroke-linejoin:miter;stroke-opacity:1"
       x="2724.7915"
       y="1835.1829"
       id="text16757"
       sodipodi:linespacing="125%"><tspan
         sodipodi:role="line"
         id="tspan16759"
         x="2724.7915"
         y="1835.1829">-0.02</tspan></text>
    <text
       sodipodi:linespacing="125%"
       id="text16761"
       y="1835.3781"
       x="2797.0002"
       style="font-style:normal;font-weight:normal;font-size:9.15283012px;line-height:125%;font-family:sans-serif;letter-spacing:0px;word-spacing:0px;fill:#000000;fill-opacity:1;stroke:none;stroke-width:1px;stroke-linecap:butt;stroke-linejoin:miter;stroke-opacity:1"
       xml:space="preserve"><tspan
         y="1835.3781"
         x="2797.0002"
         id="tspan16763"
         sodipodi:role="line">0.02</tspan></text>
    <text
       xml:space="preserve"
       style="font-style:normal;font-weight:normal;font-size:9.15283012px;line-height:125%;font-family:sans-serif;letter-spacing:0px;word-spacing:0px;fill:#000000;fill-opacity:1;stroke:none;stroke-width:1px;stroke-linecap:butt;stroke-linejoin:miter;stroke-opacity:1"
       x="2836.2273"
       y="1834.5974"
       id="text16765"
       sodipodi:linespacing="125%"><tspan
         sodipodi:role="line"
         id="tspan16767"
         x="2836.2273"
         y="1834.5974">0.04</tspan></text>
    <text
       sodipodi:linespacing="125%"
       id="text16769"
       y="1834.5974"
       x="2873.3074"
       style="font-style:normal;font-weight:normal;font-size:9.15283012px;line-height:125%;font-family:sans-serif;letter-spacing:0px;word-spacing:0px;fill:#000000;fill-opacity:1;stroke:none;stroke-width:1px;stroke-linecap:butt;stroke-linejoin:miter;stroke-opacity:1"
       xml:space="preserve"><tspan
         y="1834.5974"
         x="2873.3074"
         id="tspan16771"
         sodipodi:role="line">0.06</tspan></text>
    <text
       xml:space="preserve"
       style="font-style:normal;font-weight:normal;font-size:9.15283012px;line-height:125%;font-family:sans-serif;letter-spacing:0px;word-spacing:0px;fill:#000000;fill-opacity:1;stroke:none;stroke-width:1px;stroke-linecap:butt;stroke-linejoin:miter;stroke-opacity:1"
       x="2909.802"
       y="1834.4022"
       id="text16773"
       sodipodi:linespacing="125%"><tspan
         sodipodi:role="line"
         id="tspan16775"
         x="2909.802"
         y="1834.4022">0.08</tspan></text>
    <text
       sodipodi:linespacing="125%"
       id="text16785"
       y="1856.5002"
       x="2762.8013"
       style="font-style:normal;font-weight:normal;font-size:9.15283012px;line-height:125%;font-family:sans-serif;letter-spacing:0px;word-spacing:0px;fill:#000000;fill-opacity:1;stroke:none;stroke-width:1px;stroke-linecap:butt;stroke-linejoin:miter;stroke-opacity:1"
       xml:space="preserve"><tspan
         y="1856.5002"
         x="2762.8013"
         id="tspan16787"
         sodipodi:role="line">-1</tspan></text>
    <text
       xml:space="preserve"
       style="font-style:normal;font-weight:normal;font-size:9.15283012px;line-height:125%;font-family:sans-serif;letter-spacing:0px;word-spacing:0px;fill:#000000;fill-opacity:1;stroke:none;stroke-width:1px;stroke-linecap:butt;stroke-linejoin:miter;stroke-opacity:1"
       x="2762.7866"
       y="1884.517"
       id="text16789"
       sodipodi:linespacing="125%"><tspan
         sodipodi:role="line"
         id="tspan16791"
         x="2762.7866"
         y="1884.517">-2</tspan></text>
    <text
       xml:space="preserve"
       style="font-style:normal;font-weight:normal;font-size:9.15283012px;line-height:125%;font-family:sans-serif;letter-spacing:0px;word-spacing:0px;fill:#000000;fill-opacity:1;stroke:none;stroke-width:1px;stroke-linecap:butt;stroke-linejoin:miter;stroke-opacity:1"
       x="2765.4897"
       y="1799.7405"
       id="text16793"
       sodipodi:linespacing="125%"><tspan
         sodipodi:role="line"
         id="tspan16795"
         x="2765.4897"
         y="1799.7405">1</tspan></text>
    <text
       sodipodi:linespacing="125%"
       id="text16797"
       y="1772.4181"
       x="2766.7068"
       style="font-style:normal;font-weight:normal;font-size:9.15283012px;line-height:125%;font-family:sans-serif;letter-spacing:0px;word-spacing:0px;fill:#000000;fill-opacity:1;stroke:none;stroke-width:1px;stroke-linecap:butt;stroke-linejoin:miter;stroke-opacity:1"
       xml:space="preserve"><tspan
         y="1772.4181"
         x="2766.7068"
         id="tspan16799"
         sodipodi:role="line">2</tspan></text>
    <path
       style="fill:none;fill-rule:evenodd;stroke:#204a87;stroke-width:1.58461535;stroke-linecap:butt;stroke-linejoin:miter;stroke-miterlimit:4;stroke-dasharray:none;stroke-opacity:1"
       d="m 2713.4251,1825.1295 242.4822,0"
       id="path16801"
       inkscape:connector-curvature="0" />
    <path
       inkscape:connector-curvature="0"
       id="path16803"
       d="m 2773.9298,1741.8115 0,169.0223"
       style="fill:none;fill-rule:evenodd;stroke:#ff4141;stroke-width:1.19846117;stroke-linecap:butt;stroke-linejoin:miter;stroke-miterlimit:4;stroke-dasharray:none;stroke-opacity:1" />
    <text
       sodipodi:linespacing="125%"
       id="text16777"
       y="1835.5732"
       x="2770.8489"
       style="font-style:normal;font-weight:normal;font-size:9.15283012px;line-height:125%;font-family:sans-serif;letter-spacing:0px;word-spacing:0px;fill:#000000;fill-opacity:1;stroke:none;stroke-width:1px;stroke-linecap:butt;stroke-linejoin:miter;stroke-opacity:1"
       xml:space="preserve"><tspan
         y="1835.5732"
         x="2770.8489"
         id="tspan16779"
         sodipodi:role="line">0</tspan></text>
    <text
       xml:space="preserve"
       style="font-style:normal;font-weight:normal;font-size:9.15283012px;line-height:125%;font-family:sans-serif;letter-spacing:0px;word-spacing:0px;fill:#000000;fill-opacity:1;stroke:none;stroke-width:1px;stroke-linecap:butt;stroke-linejoin:miter;stroke-opacity:1"
       x="2765.7915"
       y="1828.3208"
       id="text16781"
       sodipodi:linespacing="125%"><tspan
         sodipodi:role="line"
         id="tspan16783"
         x="2765.7915"
         y="1828.3208">0</tspan></text>
  </g>
</svg>
